<svg width="76" height="76" viewBox="0 0 76 76" fill="none" xmlns="http://www.w3.org/2000/svg">
<path fill-rule="evenodd" clip-rule="evenodd" d="M43.5276 14.5637C43.049 13.9941 42.2318 13.8477 41.5854 14.2159L40.9809 14.5601L40.9736 14.5588L40.9725 14.5649L34.4673 18.2696L35.9923 20.9474L40.241 18.5278L39.1958 24.1903L42.2262 24.7497L43.2771 19.0562L46.4066 22.7812L48.766 20.799L44.0021 15.1285L44.004 15.1182L43.9915 15.1159L43.5276 14.5637ZM34.3581 62.3858C35.9252 62.3858 37.1955 61.1476 37.1955 59.6201C37.1955 58.0926 35.9252 56.8544 34.3581 56.8544C32.7911 56.8544 31.5208 58.0926 31.5208 59.6201C31.5208 61.1476 32.7911 62.3858 34.3581 62.3858ZM38.174 47.2081L37.1519 52.9074L34.1187 52.3634L35.1344 46.6997L30.9003 49.131L29.3658 46.4586L35.8449 42.7382L35.8463 42.7302L35.8558 42.7319L36.4638 42.3828C37.1079 42.013 37.9242 42.1553 38.4052 42.7213L38.8743 43.2733L38.8795 43.2742L38.8787 43.2785L43.6851 48.9345L41.3368 50.93L38.174 47.2081ZM40.6286 33.6028L39.6072 39.298L36.574 38.7541L37.5855 33.1135L33.366 35.5242L31.8373 32.8486L38.2947 29.1592L38.3016 29.1203L38.3481 29.1287L38.9369 28.7923C39.5809 28.4243 40.3957 28.5674 40.8758 29.1328L41.3256 29.6626L41.3348 29.6643L41.3335 29.6719L46.1378 35.3301L43.7888 37.3246L40.6286 33.6028ZM20.7388 56.0906L20.7222 56.1019L20.7087 56.0819L20.081 55.9017C19.416 55.7107 18.9759 55.08 19.026 54.39L19.5846 46.7047L22.5018 46.9168L22.1621 51.5912L26.7058 48.5094L28.3476 50.9301L23.8911 53.9527L28.4386 55.2585L27.6313 58.0698L20.7388 56.0906ZM48.5381 60.9511L49.1798 60.9937C49.8582 61.0387 50.4782 60.6103 50.6759 59.9598L50.8813 59.2844L52.9116 52.6055L50.1132 51.7548L48.7395 56.2734L45.5652 51.8107L43.1818 53.5061L46.286 57.8702L41.5259 57.5542L41.3321 60.4727L48.4744 60.9469L48.4978 60.9797L48.5381 60.9511ZM59.2532 43.4227L59.2608 43.424L59.2592 43.4333L59.5999 44.0437C59.9487 44.6686 59.8066 45.4529 59.2607 45.9157L58.7455 46.3524L58.7418 46.3733L58.7245 46.3702L53.1749 51.0745L51.2386 48.7903L54.8895 45.6954L49.4216 44.7332L49.9406 41.7839L55.4501 42.7535L53.1395 38.614L55.7542 37.1544L59.2532 43.4227ZM53.6238 30.5672L48.6838 33.2254L47.2649 30.5883L52.1189 27.9764L47.6578 26.1719L48.7807 23.3959L55.5459 26.1324L55.5767 26.1159L55.5966 26.1529L56.209 26.4006C56.8663 26.6665 57.247 27.357 57.1209 28.0549L56.995 28.7517L56.9956 28.7529L56.9947 28.7534L55.7232 35.7891L52.7764 35.2566L53.6238 30.5672ZM20.5088 36.7455L25.9885 37.6779L25.4861 40.63L19.9607 39.6898L22.317 43.8417L19.7126 45.3198L16.1495 39.0413L16.1456 39.0407L16.1464 39.036L15.8055 38.4353C15.4524 37.813 15.5888 37.0278 16.1312 36.5612L16.6423 36.1216L16.6479 36.0886L16.6753 36.0932L22.1577 31.3768L24.1106 33.647L20.5088 36.7455ZM28.7868 23.9766L32.4339 28.0396L30.2054 30.0399L26.4743 25.8833L25.6057 30.6171L22.6604 30.0767L23.9464 23.0672L23.9403 23.0604L23.9491 23.0525L24.0794 22.3424C24.2056 21.6546 24.7912 21.1457 25.4899 21.1166L26.1357 21.0898L26.1688 21.0601L26.1933 21.0874L33.5136 20.7829L33.638 23.7749L28.7868 23.9766Z" fill="#030080"/>
</svg>
